<svg viewBox="0 0 10000 10000" xmlns="http://www.w3.org/2000/svg">
<path d="M0,0 l10000,0 l0,10000 l-10000,0 z" fill="white"/>
<path d="M4335,9457 l343,0 l0,373 l-343,0 z" fill="#ff00fe" stroke="black" stroke-width="5"/>
<path d="M0,6957 l450,0 l0,3043 l-450,0 z" fill="#5100ff" stroke="black" stroke-width="5"/>
<path d="M1422,4429 l700,0 l0,814 l-700,0 z" fill="#fe00ff" stroke="black" stroke-width="5"/>
<path d="M1013,1117 l1356,0 l0,1222 l-1356,0 z" fill="#ff00fe" stroke="black" stroke-width="5"/>
<path d="M1921,560 l675,0 l0,557 l-675,0 z" fill="#2300ff" stroke="black" stroke-width="5"/>
<path d="M6146,7162 l862,0 l0,842 l-862,0 z" fill="#fe00ff" stroke="black" stroke-width="5"/>
<path d="M6731,1 l1648,0 l0,1353 l-1648,0 z" fill="#fe00ff" stroke="black" stroke-width="5"/>
<path d="M965,5243 l1171,0 l0,422 l-1171,0 z" fill="#0c00ff" stroke="black" stroke-width="5"/>
<path d="M8040,6876 l1960,0 l0,1023 l-1960,0 z" fill="#fb00ff" stroke="black" stroke-width="5"/>
<path d="M5693,410 l161,0 l0,191 l-161,0 z" fill="#fe00ff" stroke="black" stroke-width="5"/>
<path d="M2369,1489 l2071,0 l0,1436 l-2071,0 z" fill="#8900ff" stroke="black" stroke-width="5"/>
<path d="M738,9298 l361,0 l0,460 l-361,0 z" fill="#fe00ff" stroke="black" stroke-width="5"/>
<path d="M6529,4142 l3471,0 l0,1246 l-3471,0 z" fill="#fe00ff" stroke="black" stroke-width="5"/>
<path d="M3233,8160 l792,0 l0,385 l-792,0 z" fill="#ff00fe" stroke="black" stroke-width="5"/>
<path d="M6627,8447 l91,0 l0,82 l-91,0 z" fill="#fe00ff" stroke="black" stroke-width="5"/>
<path d="M2139,5479 l1908,0 l0,1153 l-1908,0 z" fill="#ea00ff" stroke="black" stroke-width="5"/>
<path d="M3937,4508 l1575,0 l0,777 l-1575,0 z" fill="#ff00fe" stroke="black" stroke-width="5"/>
<path d="M9498,9714 l307,0 l0,270 l-307,0 z" fill="#fe00ff" stroke="black" stroke-width="5"/>
<path d="M1675,566 l246,0 l0,236 l-246,0 z" fill="#fe00ff" stroke="black" stroke-width="5"/>
<path d="M5512,4790 l356,0 l0,3510 l-356,0 z" fill="#fe00ff" stroke="black" stroke-width="5"/>
<path d="M6820,2635 l587,0 l0,1406 l-587,0 z" fill="#fe00ff" stroke="black" stroke-width="5"/>
<path d="M1873,2454 l441,0 l0,393 l-441,0 z" fill="#fe00ff" stroke="black" stroke-width="5"/>
<path d="M8208,5388 l1222,0 l0,917 l-1222,0 z" fill="#ff00fe" stroke="black" stroke-width="5"/>
<path d="M4075,6472 l1437,0 l0,2075 l-1437,0 z" fill="#fe00ff" stroke="black" stroke-width="5"/>
<path d="M450,8418 l1775,0 l0,880 l-1775,0 z" fill="#f400ff" stroke="black" stroke-width="5"/>
<path d="M2136,4508 l1801,0 l0,971 l-1801,0 z" fill="#ff00fe" stroke="black" stroke-width="5"/>
<path d="M7017,7138 l1023,0 l0,2102 l-1023,0 z" fill="#fe00ff" stroke="black" stroke-width="5"/>
<path d="M450,6957 l686,0 l0,1461 l-686,0 z" fill="#fe00ff" stroke="black" stroke-width="5"/>
<path d="M5645,2226 l884,0 l0,2477 l-884,0 z" fill="#ff00fe" stroke="black" stroke-width="5"/>
<path d="M2225,8547 l2110,0 l0,1453 l-2110,0 z" fill="#fe00ff" stroke="black" stroke-width="5"/>
<path d="M5868,5559 l467,0 l0,438 l-467,0 z" fill="#ff00fe" stroke="black" stroke-width="5"/>
<path d="M6718,8194 l299,0 l0,771 l-299,0 z" fill="#fe00ff" stroke="black" stroke-width="5"/>
<path d="M4047,5285 l1465,0 l0,1187 l-1465,0 z" fill="#dc00ff" stroke="black" stroke-width="5"/>
<path d="M5675,605 l1051,0 l0,1598 l-1051,0 z" fill="#fe00ff" stroke="black" stroke-width="5"/>
<path d="M2596,0 l1844,0 l0,1489 l-1844,0 z" fill="#c600ff" stroke="black" stroke-width="5"/>
<path d="M0,1964 l965,0 l0,3615 l-965,0 z" fill="#fe00ff" stroke="black" stroke-width="5"/>
<path d="M3779,2925 l1866,0 l0,1583 l-1866,0 z" fill="#b500ff" stroke="black" stroke-width="5"/>
<path d="M4440,1993 l1133,0 l0,893 l-1133,0 z" fill="#fe00ff" stroke="black" stroke-width="5"/>
<path d="M7457,1354 l2311,0 l0,1695 l-2311,0 z" fill="#fe00ff" stroke="black" stroke-width="5"/>
<path d="M7407,3049 l2593,0 l0,1093 l-2593,0 z" fill="#6e00ff" stroke="black" stroke-width="5"/>
<path d="M4440,0 l1235,0 l0,1993 l-1235,0 z" fill="#5900ff" stroke="black" stroke-width="5"/>
<path d="M8048,7899 l1207,0 l0,1202 l-1207,0 z" fill="#fe00ff" stroke="black" stroke-width="5"/>
<path d="M0,5665 l2139,0 l0,1292 l-2139,0 z" fill="#fe00ff" stroke="black" stroke-width="5"/>
<path d="M2301,6632 l1774,0 l0,1528 l-1774,0 z" fill="#c300ff" stroke="black" stroke-width="5"/>
<path d="M6782,9264 l386,0 l0,384 l-386,0 z" fill="#ff00fe" stroke="black" stroke-width="5"/>
<path d="M3041,3022 l738,0 l0,756 l-738,0 z" fill="#ff00fe" stroke="black" stroke-width="5"/>
<path d="M8515,9729 l122,0 l0,140 l-122,0 z" fill="#fe00ff" stroke="black" stroke-width="5"/>
<path d="M7808,6311 l867,0 l0,565 l-867,0 z" fill="#ff00fe" stroke="black" stroke-width="5"/>
<path d="M0,0 l2596,0 l0,560 l-2596,0 z" fill="#2600ff" stroke="black" stroke-width="5"/>
<path d="M965,4447 l453,0 l0,618 l-453,0 z" fill="#fe00ff" stroke="black" stroke-width="5"/>
<path d="M6529,3243 l291,0 l0,819 l-291,0 z" fill="#fe00ff" stroke="black" stroke-width="5"/>
<path d="M1136,6957 l1165,0 l0,1461 l-1165,0 z" fill="#fe00ff" stroke="black" stroke-width="5"/>
<path d="M4305,9790 l60,0 l0,60 l-60,0 z" fill="green"/>
<path d="M4335,9820 l171.5,-176.5" stroke="black" stroke-width="5"/>
<path d="M29,8198 l60,0 l0,60 l-60,0 z" fill="green"/>
<path d="M59,8228 l166,250.5" stroke="black" stroke-width="5"/>
<path d="M1828,5212 l60,0 l0,60 l-60,0 z" fill="green"/>
<path d="M1858,5242 l-86,-406" stroke="black" stroke-width="5"/>
<path d="M2338,1087 l60,0 l0,60 l-60,0 z" fill="green"/>
<path d="M2368,1117 l-677,611" stroke="black" stroke-width="5"/>
<path d="M2477,530 l60,0 l0,60 l-60,0 z" fill="green"/>
<path d="M2507,560 l-248.5,278.5" stroke="black" stroke-width="5"/>
<path d="M6503,7679 l60,0 l0,60 l-60,0 z" fill="green"/>
<path d="M6533,7709 l44,-126" stroke="black" stroke-width="5"/>
<path d="M6710,860 l60,0 l0,60 l-60,0 z" fill="green"/>
<path d="M6740,890 l815,-212.5" stroke="black" stroke-width="5"/>
<path d="M1438,5634 l60,0 l0,60 l-60,0 z" fill="green"/>
<path d="M1468,5664 l82.5,-210" stroke="black" stroke-width="5"/>
<path d="M8266,7240 l60,0 l0,60 l-60,0 z" fill="green"/>
<path d="M8296,7270 l724,117.5" stroke="black" stroke-width="5"/>
<path d="M5680,548 l60,0 l0,60 l-60,0 z" fill="green"/>
<path d="M5710,578 l63.5,-72.5" stroke="black" stroke-width="5"/>
<path d="M3214,2300 l60,0 l0,60 l-60,0 z" fill="green"/>
<path d="M3244,2330 l160.5,-123" stroke="black" stroke-width="5"/>
<path d="M969,9268 l60,0 l0,60 l-60,0 z" fill="green"/>
<path d="M999,9298 l-80.5,230" stroke="black" stroke-width="5"/>
<path d="M8352,4995 l60,0 l0,60 l-60,0 z" fill="green"/>
<path d="M8382,5025 l-117.5,-260" stroke="black" stroke-width="5"/>
<path d="M3698,8130 l60,0 l0,60 l-60,0 z" fill="green"/>
<path d="M3728,8160 l-99,192.5" stroke="black" stroke-width="5"/>
<path d="M6687,8480 l60,0 l0,60 l-60,0 z" fill="green"/>
<path d="M6717,8510 l-44.5,-22" stroke="black" stroke-width="5"/>
<path d="M3421,5497 l60,0 l0,60 l-60,0 z" fill="green"/>
<path d="M3451,5527 l-358,528.5" stroke="black" stroke-width="5"/>
<path d="M4653,5254 l60,0 l0,60 l-60,0 z" fill="green"/>
<path d="M4683,5284 l41.5,-387.5" stroke="black" stroke-width="5"/>
<path d="M9611,9823 l60,0 l0,60 l-60,0 z" fill="green"/>
<path d="M9641,9853 l10.5,-4" stroke="black" stroke-width="5"/>
<path d="M1890,569 l60,0 l0,60 l-60,0 z" fill="green"/>
<path d="M1920,599 l-122,85" stroke="black" stroke-width="5"/>
<path d="M5533,5909 l60,0 l0,60 l-60,0 z" fill="green"/>
<path d="M5563,5939 l127,606" stroke="black" stroke-width="5"/>
<path d="M7376,3428 l60,0 l0,60 l-60,0 z" fill="green"/>
<path d="M7406,3458 l-292.5,-120" stroke="black" stroke-width="5"/>
<path d="M2195,2424 l60,0 l0,60 l-60,0 z" fill="green"/>
<path d="M2225,2454 l-131.5,196.5" stroke="black" stroke-width="5"/>
<path d="M8434,5358 l60,0 l0,60 l-60,0 z" fill="green"/>
<path d="M8464,5388 l355,458.5" stroke="black" stroke-width="5"/>
<path d="M4758,6442 l60,0 l0,60 l-60,0 z" fill="green"/>
<path d="M4788,6472 l5.5,1037.5" stroke="black" stroke-width="5"/>
<path d="M1420,8645 l60,0 l0,60 l-60,0 z" fill="green"/>
<path d="M1450,8675 l-112.5,183" stroke="black" stroke-width="5"/>
<path d="M3367,5448 l60,0 l0,60 l-60,0 z" fill="green"/>
<path d="M3397,5478 l-360.5,-484.5" stroke="black" stroke-width="5"/>
<path d="M7349,8003 l60,0 l0,60 l-60,0 z" fill="green"/>
<path d="M7379,8033 l149.5,156" stroke="black" stroke-width="5"/>
<path d="M913,8220 l60,0 l0,60 l-60,0 z" fill="green"/>
<path d="M943,8250 l-150,-562.5" stroke="black" stroke-width="5"/>
<path d="M5617,3479 l60,0 l0,60 l-60,0 z" fill="green"/>
<path d="M5647,3509 l440,-44.5" stroke="black" stroke-width="5"/>
<path d="M3184,9289 l60,0 l0,60 l-60,0 z" fill="green"/>
<path d="M3214,9319 l66,-45.5" stroke="black" stroke-width="5"/>
<path d="M5838,5905 l60,0 l0,60 l-60,0 z" fill="green"/>
<path d="M5868,5935 l233.5,-157" stroke="black" stroke-width="5"/>
<path d="M6986,8195 l60,0 l0,60 l-60,0 z" fill="green"/>
<path d="M7016,8225 l-148.5,354.5" stroke="black" stroke-width="5"/>
<path d="M5185,5736 l60,0 l0,60 l-60,0 z" fill="green"/>
<path d="M5215,5766 l-435.5,112.5" stroke="black" stroke-width="5"/>
<path d="M5645,1095 l60,0 l0,60 l-60,0 z" fill="green"/>
<path d="M5675,1125 l525.5,279" stroke="black" stroke-width="5"/>
<path d="M4404,1456 l60,0 l0,60 l-60,0 z" fill="green"/>
<path d="M4434,1486 l-916,-741.5" stroke="black" stroke-width="5"/>
<path d="M103,4817 l60,0 l0,60 l-60,0 z" fill="green"/>
<path d="M133,4847 l349.5,-1075.5" stroke="black" stroke-width="5"/>
<path d="M5093,3770 l60,0 l0,60 l-60,0 z" fill="green"/>
<path d="M5123,3800 l-411,-83.5" stroke="black" stroke-width="5"/>
<path d="M4410,1963 l60,0 l0,60 l-60,0 z" fill="green"/>
<path d="M4440,1993 l566.5,446.5" stroke="black" stroke-width="5"/>
<path d="M9015,3018 l60,0 l0,60 l-60,0 z" fill="green"/>
<path d="M9045,3048 l-432.5,-846.5" stroke="black" stroke-width="5"/>
<path d="M8960,3194 l60,0 l0,60 l-60,0 z" fill="green"/>
<path d="M8990,3224 l-286.5,371.5" stroke="black" stroke-width="5"/>
<path d="M5146,511 l60,0 l0,60 l-60,0 z" fill="green"/>
<path d="M5176,541 l-118.5,455.5" stroke="black" stroke-width="5"/>
<path d="M8111,7869 l60,0 l0,60 l-60,0 z" fill="green"/>
<path d="M8141,7899 l510.5,601" stroke="black" stroke-width="5"/>
<path d="M1695,6898 l60,0 l0,60 l-60,0 z" fill="green"/>
<path d="M1725,6928 l-655.5,-617" stroke="black" stroke-width="5"/>
<path d="M3880,6602 l60,0 l0,60 l-60,0 z" fill="green"/>
<path d="M3910,6632 l-722,764" stroke="black" stroke-width="5"/>
<path d="M7096,9259 l60,0 l0,60 l-60,0 z" fill="green"/>
<path d="M7126,9289 l-151,167" stroke="black" stroke-width="5"/>
<path d="M3748,3247 l60,0 l0,60 l-60,0 z" fill="green"/>
<path d="M3778,3277 l-368,123" stroke="black" stroke-width="5"/>
<path d="M8606,9837 l60,0 l0,60 l-60,0 z" fill="green"/>
<path d="M8636,9867 l-60,-68" stroke="black" stroke-width="5"/>
<path d="M7896,6845 l60,0 l0,60 l-60,0 z" fill="green"/>
<path d="M7926,6875 l315.5,-281.5" stroke="black" stroke-width="5"/>
<path d="M2478,44 l60,0 l0,60 l-60,0 z" fill="green"/>
<path d="M2508,74 l-1210,206" stroke="black" stroke-width="5"/>
<path d="M935,4992 l60,0 l0,60 l-60,0 z" fill="green"/>
<path d="M965,5022 l226.5,-266" stroke="black" stroke-width="5"/>
<path d="M6633,4025 l60,0 l0,60 l-60,0 z" fill="green"/>
<path d="M6663,4055 l11.5,-402.5" stroke="black" stroke-width="5"/>
<path d="M1833,8376 l60,0 l0,60 l-60,0 z" fill="green"/>
<path d="M1863,8406 l-144.5,-718.5" stroke="black" stroke-width="5"/>
<text font-size="196.116135138184" text-anchor="middle" x="4506.5" y="9712.140647298364">
0
</text>
<text font-size="196.116135138184" text-anchor="middle" x="225" y="8547.140647298364">
1
</text>
<text font-size="196.116135138184" text-anchor="middle" x="1772" y="4904.6406472983645">
2
</text>
<text font-size="196.116135138184" text-anchor="middle" x="1691" y="1796.6406472983645">
3
</text>
<text font-size="196.116135138184" text-anchor="middle" x="2258.5" y="907.1406472983645">
4
</text>
<text font-size="196.116135138184" text-anchor="middle" x="6577" y="7651.6406472983645">
5
</text>
<text font-size="196.116135138184" text-anchor="middle" x="7555" y="746.1406472983645">
6
</text>
<text font-size="196.116135138184" text-anchor="middle" x="1550.5" y="5522.6406472983645">
7
</text>
<text font-size="196.116135138184" text-anchor="middle" x="9020" y="7456.1406472983645">
8
</text>
<text font-size="196.116135138184" text-anchor="middle" x="5773.5" y="574.1406472983645">
9
</text>
<text font-size="196.116135138184" text-anchor="middle" x="3404.5" y="2275.6406472983645">
10
</text>
<text font-size="196.116135138184" text-anchor="middle" x="918.5" y="9596.640647298364">
11
</text>
<text font-size="196.116135138184" text-anchor="middle" x="8264.5" y="4833.6406472983645">
12
</text>
<text font-size="196.116135138184" text-anchor="middle" x="3629" y="8421.140647298364">
13
</text>
<text font-size="196.116135138184" text-anchor="middle" x="6672.5" y="8556.640647298364">
14
</text>
<text font-size="196.116135138184" text-anchor="middle" x="3093" y="6124.1406472983645">
15
</text>
<text font-size="196.116135138184" text-anchor="middle" x="4724.5" y="4965.1406472983645">
16
</text>
<text font-size="196.116135138184" text-anchor="middle" x="9651.5" y="9917.640647298364">
17
</text>
<text font-size="196.116135138184" text-anchor="middle" x="1798" y="752.6406472983645">
18
</text>
<text font-size="196.116135138184" text-anchor="middle" x="5690" y="6613.6406472983645">
19
</text>
<text font-size="196.116135138184" text-anchor="middle" x="7113.5" y="3406.6406472983645">
20
</text>
<text font-size="196.116135138184" text-anchor="middle" x="2093.5" y="2719.1406472983645">
21
</text>
<text font-size="196.116135138184" text-anchor="middle" x="8819" y="5915.1406472983645">
22
</text>
<text font-size="196.116135138184" text-anchor="middle" x="4793.5" y="7578.1406472983645">
23
</text>
<text font-size="196.116135138184" text-anchor="middle" x="1337.5" y="8926.640647298364">
24
</text>
<text font-size="196.116135138184" text-anchor="middle" x="3036.5" y="5062.1406472983645">
25
</text>
<text font-size="196.116135138184" text-anchor="middle" x="7528.5" y="8257.640647298364">
26
</text>
<text font-size="196.116135138184" text-anchor="middle" x="793" y="7756.1406472983645">
27
</text>
<text font-size="196.116135138184" text-anchor="middle" x="6087" y="3533.1406472983645">
28
</text>
<text font-size="196.116135138184" text-anchor="middle" x="3280" y="9342.140647298364">
29
</text>
<text font-size="196.116135138184" text-anchor="middle" x="6101.5" y="5846.6406472983645">
30
</text>
<text font-size="196.116135138184" text-anchor="middle" x="6867.5" y="8648.140647298364">
31
</text>
<text font-size="196.116135138184" text-anchor="middle" x="4779.5" y="5947.1406472983645">
32
</text>
<text font-size="196.116135138184" text-anchor="middle" x="6200.5" y="1472.6406472983645">
33
</text>
<text font-size="196.116135138184" text-anchor="middle" x="3518" y="813.1406472983645">
34
</text>
<text font-size="196.116135138184" text-anchor="middle" x="482.5" y="3840.1406472983645">
35
</text>
<text font-size="196.116135138184" text-anchor="middle" x="4712" y="3785.1406472983645">
36
</text>
<text font-size="196.116135138184" text-anchor="middle" x="5006.5" y="2508.1406472983645">
37
</text>
<text font-size="196.116135138184" text-anchor="middle" x="8612.5" y="2270.1406472983645">
38
</text>
<text font-size="196.116135138184" text-anchor="middle" x="8703.5" y="3664.1406472983645">
39
</text>
<text font-size="196.116135138184" text-anchor="middle" x="5057.5" y="1065.1406472983645">
40
</text>
<text font-size="196.116135138184" text-anchor="middle" x="8651.5" y="8568.640647298364">
41
</text>
<text font-size="196.116135138184" text-anchor="middle" x="1069.5" y="6379.6406472983645">
42
</text>
<text font-size="196.116135138184" text-anchor="middle" x="3188" y="7464.6406472983645">
43
</text>
<text font-size="196.116135138184" text-anchor="middle" x="6975" y="9524.640647298364">
44
</text>
<text font-size="196.116135138184" text-anchor="middle" x="3410" y="3468.6406472983645">
45
</text>
<text font-size="196.116135138184" text-anchor="middle" x="8576" y="9867.640647298364">
46
</text>
<text font-size="196.116135138184" text-anchor="middle" x="8241.5" y="6662.1406472983645">
47
</text>
<text font-size="196.116135138184" text-anchor="middle" x="1298" y="348.6406472983644">
48
</text>
<text font-size="196.116135138184" text-anchor="middle" x="1191.5" y="4824.6406472983645">
49
</text>
<text font-size="196.116135138184" text-anchor="middle" x="6674.5" y="3721.1406472983645">
50
</text>
<text font-size="196.116135138184" text-anchor="middle" x="1718.5" y="7756.1406472983645">
51
</text>
</svg>